<svg width="152" height="150" viewBox="0 0 152 150" fill="none" xmlns="http://www.w3.org/2000/svg">
<path d="M142.697 57.1905C145.367 56.488 146.979 53.7465 146.1 51.1287C141.375 37.0547 132.563 24.66 120.738 15.5607C107.588 5.44221 91.4548 -0.030221 74.8628 0.000125444C58.2709 0.0304719 42.1573 5.56189 29.0448 15.7284C15.9324 25.8949 6.5613 40.1225 2.39867 56.1839C-1.76396 72.2452 -0.483118 89.2335 6.04067 104.489C12.5645 119.745 23.9629 132.407 38.4515 140.492C52.94 148.578 69.7008 151.63 86.1098 149.173C100.866 146.962 114.589 140.408 125.555 130.401C127.595 128.539 127.517 125.36 125.524 123.449L112.288 110.756C110.295 108.845 107.145 108.935 105.032 110.713C98.4616 116.238 90.466 119.866 81.912 121.147C71.7031 122.676 61.2753 120.777 52.2611 115.746C43.247 110.716 36.1554 102.838 32.0966 93.3469C28.0377 83.8555 27.2409 73.2861 29.8307 63.2934C32.4205 53.3008 38.2507 44.449 46.4087 38.1238C54.5667 31.7987 64.5919 28.3573 74.9147 28.3384C85.2374 28.3195 95.2751 31.7242 103.456 38.0195C110.311 43.2942 115.538 50.3488 118.598 58.37C119.582 60.9501 122.291 62.5587 124.962 61.8562L142.697 57.1905Z" fill="white"/>
<path d="M143 92.963L108.105 62.7033L151.758 47.6129L143 92.963ZM127.458 60.2454L120.219 39.3069L127.78 36.6931L135.019 57.6317L127.458 60.2454Z" fill="white"/>
<path d="M60.5482 51V99H50.3998V60.6328H50.1185L39.1263 67.5234V58.5234L51.0091 51H60.5482ZM85.4967 100.055C81.4655 100.039 77.9967 99.0469 75.0905 97.0781C72.1998 95.1094 69.9733 92.2578 68.4108 88.5234C66.8639 84.7891 66.0983 80.2969 66.1139 75.0469C66.1139 69.8125 66.8873 65.3516 68.4342 61.6641C69.9967 57.9766 72.2233 55.1719 75.1139 53.25C78.0202 51.3125 81.4811 50.3437 85.4967 50.3437C89.5123 50.3437 92.9655 51.3125 95.8561 53.25C98.7623 55.1875 100.997 58 102.559 61.6875C104.122 65.3594 104.895 69.8125 104.88 75.0469C104.88 80.3125 104.098 84.8125 102.536 88.5469C100.989 92.2812 98.7702 95.1328 95.8795 97.1016C92.9889 99.0703 89.528 100.055 85.4967 100.055ZM85.4967 91.6406C88.2467 91.6406 90.442 90.2578 92.0827 87.4922C93.7233 84.7266 94.5358 80.5781 94.5202 75.0469C94.5202 71.4062 94.1452 68.375 93.3952 65.9531C92.6608 63.5312 91.6139 61.7109 90.2545 60.4922C88.9108 59.2734 87.3248 58.6641 85.4967 58.6641C82.7623 58.6641 80.5748 60.0313 78.9342 62.7656C77.2936 65.5 76.4655 69.5937 76.4498 75.0469C76.4498 78.7344 76.817 81.8125 77.5514 84.2812C78.3014 86.7344 79.3561 88.5781 80.7155 89.8125C82.0748 91.0312 83.6686 91.6406 85.4967 91.6406Z" fill="white"/>
</svg>
