<svg width="152" height="150" viewBox="0 0 152 150" fill="none" xmlns="http://www.w3.org/2000/svg">
<path d="M9.30345 57.1905C6.6329 56.488 5.02142 53.7465 5.9003 51.1287C10.6253 37.0547 19.4368 24.66 31.262 15.5607C44.4115 5.44221 60.5452 -0.030221 77.1372 0.000125444C93.7291 0.0304719 109.843 5.56189 122.955 15.7284C136.068 25.8949 145.439 40.1225 149.601 56.1839C153.764 72.2452 152.483 89.2335 145.959 104.489C139.436 119.745 128.037 132.407 113.549 140.492C99.06 148.578 82.2992 151.63 65.8902 149.173C51.134 146.962 37.4114 140.408 26.4453 130.401C24.4055 128.539 24.4825 125.36 26.4757 123.449L39.7118 110.756C41.705 108.845 44.8545 108.935 46.968 110.713C53.5384 116.238 61.534 119.866 70.088 121.147C80.2969 122.676 90.7247 120.777 99.7389 115.746C108.753 110.716 115.845 102.838 119.903 93.3469C123.962 83.8555 124.759 73.2861 122.169 63.2934C119.58 53.3008 113.749 44.449 105.591 38.1238C97.4333 31.7987 87.4081 28.3573 77.0853 28.3384C66.7626 28.3195 56.7249 31.7242 48.5438 38.0195C41.689 43.2942 36.4618 50.3488 33.4023 58.37C32.4181 60.9501 29.7089 62.5587 27.0383 61.8562L9.30345 57.1905Z" fill="white"/>
<path d="M9 92.963L43.8953 62.7033L0.24201 47.6129L9 92.963ZM24.5423 60.2454L31.7805 39.3069L24.2195 36.6931L16.9813 57.6317L24.5423 60.2454Z" fill="white"/>
<path d="M69.5482 51V99H59.3998V60.6328H59.1185L48.1263 67.5234V58.5234L60.0091 51H69.5482ZM94.4967 100.055C90.4655 100.039 86.9967 99.0469 84.0905 97.0781C81.1998 95.1094 78.9733 92.2578 77.4108 88.5234C75.8639 84.7891 75.0983 80.2969 75.1139 75.0469C75.1139 69.8125 75.8873 65.3516 77.4342 61.6641C78.9967 57.9766 81.2233 55.1719 84.1139 53.25C87.0202 51.3125 90.4811 50.3437 94.4967 50.3437C98.5123 50.3437 101.965 51.3125 104.856 53.25C107.762 55.1875 109.997 58 111.559 61.6875C113.122 65.3594 113.895 69.8125 113.88 75.0469C113.88 80.3125 113.098 84.8125 111.536 88.5469C109.989 92.2812 107.77 95.1328 104.88 97.1016C101.989 99.0703 98.528 100.055 94.4967 100.055ZM94.4967 91.6406C97.2467 91.6406 99.442 90.2578 101.083 87.4922C102.723 84.7266 103.536 80.5781 103.52 75.0469C103.52 71.4062 103.145 68.375 102.395 65.9531C101.661 63.5312 100.614 61.7109 99.2545 60.4922C97.9108 59.2734 96.3248 58.6641 94.4967 58.6641C91.7623 58.6641 89.5748 60.0313 87.9342 62.7656C86.2936 65.5 85.4655 69.5937 85.4498 75.0469C85.4498 78.7344 85.817 81.8125 86.5514 84.2812C87.3014 86.7344 88.3561 88.5781 89.7155 89.8125C91.0748 91.0312 92.6686 91.6406 94.4967 91.6406Z" fill="white"/>
</svg>
