<svg width="19" height="25" viewBox="0 0 19 25" fill="none" xmlns="http://www.w3.org/2000/svg">
<path d="M12.7246 8.35449L10.6299 10.4492L10.6152 6.25L12.7246 8.35449ZM10.6152 19.0869L12.7197 16.9824L10.625 14.8877L10.6152 19.0869ZM18.75 12.666C18.75 22.7051 15.2393 25 9.71191 25C4.18457 25 0 22.7051 0 12.666C0 2.62695 4.07227 0 9.59961 0C15.127 0 18.75 2.63184 18.75 12.666ZM11.0107 12.666L14.8877 8.33984L8.7793 1.78223V10.4199L5.17578 6.81641L3.85742 8.12988L8.38379 12.6709L3.85742 17.2119L5.1709 18.5254L8.77441 14.9219L8.88672 23.2227L15.1074 16.9971L11.0107 12.666Z" fill="white"/>
</svg>
