<svg width="150" height="150" viewBox="0 0 150 150" fill="none" xmlns="http://www.w3.org/2000/svg">
<path fill-rule="evenodd" clip-rule="evenodd" d="M54.1667 0C46.3802 0 39.9219 6.00586 38.0729 14.1211C37.9688 14.1211 37.8776 14.1064 37.7865 14.0918C37.6953 14.0771 37.6042 14.0625 37.5 14.0625C28.3073 14.0625 20.8333 22.4707 20.8333 32.8125C20.8333 34.2188 20.9896 35.5957 21.276 36.9141C13.6719 40.4297 8.33333 48.8086 8.33333 58.5938C8.33333 62.2852 9.16667 65.7129 10.4948 68.8184C4.24479 72.8613 0 80.3613 0 89.0625C0 98.8184 5.3125 107.197 12.8646 110.713C12.6302 112.061 12.5 113.438 12.5 114.844C12.5 126.504 20.8854 135.938 31.25 135.938C32.3177 135.938 33.3594 135.791 34.375 135.586C36.875 143.936 43.8021 150 52.0833 150C62.4479 150 70.8333 140.566 70.8333 128.906V97.5565C69.0287 98.9921 66.9919 100.119 64.7807 100.89C63.3092 101.404 61.7841 101.751 60.2282 101.932C59.2757 104.255 58.1081 106.439 56.7456 108.437C54.2851 112.045 51.2441 114.964 47.8208 117.004C44.3975 119.045 40.6687 120.161 36.8773 120.28C34.7824 120.346 32.6944 120.106 30.6547 119.571C27.7567 118.811 26.513 115.604 27.4603 112.762C28.6463 109.203 32.8732 107.711 36.6223 107.593C38.988 107.519 41.3147 106.822 43.4507 105.549C45.5224 104.314 47.3698 102.563 48.8799 100.405C44.1007 98.5595 39.7737 95.2795 36.4668 90.9829C34.2746 88.1347 32.6018 84.9322 31.5261 81.5697C30.5053 78.3788 32.8526 75.5321 35.8788 75.584C38.5783 75.6303 40.806 78.031 41.9862 80.7652C42.5662 82.1088 43.3166 83.3888 44.2209 84.5637C46.2228 87.1647 48.8756 89.1169 51.7974 90.1393C54.7191 91.1617 57.7591 91.2015 60.4795 90.2529C61.4629 89.91 62.3862 89.4444 63.2341 88.8689C65.4917 87.3363 68.4271 86.4955 70.8333 87.7753V57.0565C69.0287 58.4922 66.9919 59.6195 64.7807 60.3905C63.3092 60.9036 61.7841 61.2506 60.2282 61.4318C59.2315 63.8633 57.9994 66.1415 56.5553 68.2131C55.4676 69.7733 54.2706 71.2007 52.981 72.4797C50.3171 75.1217 46.1319 73.5935 44.8595 70.064C43.8556 67.2792 45.0993 64.228 47.1256 62.0699C47.7503 61.4045 48.3368 60.6813 48.8799 59.9052C44.1007 58.0596 39.7737 54.7795 36.4668 50.483C34.2746 47.6348 32.6018 44.4323 31.5261 41.0697C30.5053 37.8788 32.8526 35.0321 35.8788 35.084C38.5783 35.1303 40.806 37.531 41.9862 40.2653C42.5662 41.6089 43.3166 42.8888 44.2209 44.0638C46.2228 46.6647 48.8756 48.6169 51.7974 49.6393C54.7191 50.6617 57.7591 50.7015 60.4795 49.753C61.4629 49.4101 62.3862 48.9445 63.2341 48.3689C65.4917 46.8363 68.4271 45.9956 70.8333 47.2753V18.75C70.8333 8.4082 63.3594 0 54.1667 0ZM150 89.0625C150 80.3613 145.755 72.8613 139.505 68.8184C140.859 65.7129 141.667 62.2852 141.667 58.5938C141.667 48.8086 136.328 40.4297 128.724 36.9141C128.984 35.5957 129.167 34.2188 129.167 32.8125C129.167 22.4707 121.693 14.0625 112.5 14.0625C112.392 14.0625 112.292 14.0781 112.194 14.0933C112.103 14.1074 112.015 14.1211 111.927 14.1211C110.078 6.00586 103.62 0 95.8333 0C86.6406 0 79.1667 8.37891 79.1667 18.75V36.3545C80.2132 35.3426 81.5627 34.5701 82.9603 34.0932C84.0807 33.7108 85.1732 33.1929 86.2219 32.5438C87.4312 31.7952 88.5648 30.8829 89.6036 29.8271C91.7173 27.6792 95.2154 26.9942 97.4956 28.9644C99.1933 30.4313 99.662 32.9114 98.36 34.7386C96.0651 37.9591 93.2905 40.6099 90.1803 42.5352C87.7107 44.0639 85.0784 45.105 82.3767 45.634C81.1627 45.8717 80.0505 45.5737 79.1667 44.9318V67.7615C81.314 66.299 84.4107 66.1078 87.0831 66.7364C88.3566 67.0359 89.6609 67.1525 90.9709 67.0774C94.6019 66.869 98.0816 65.1983 100.891 62.3146C103.699 59.431 105.687 55.4891 106.556 51.0774C107.136 48.1376 107.198 45.0942 106.756 42.1524C106.375 39.6186 107.379 36.956 109.644 35.7583C112.487 34.2551 116.02 35.6614 116.575 38.8289C117.452 43.8451 117.408 49.0738 116.415 54.1128C115.555 58.4758 114.013 62.5522 111.9 66.1202C113.81 67.3537 115.884 68.1533 118.024 68.4773C120.546 68.859 123.103 68.5724 125.53 67.6363C126.105 67.4145 126.669 67.1574 127.222 66.8664C130.052 65.3751 133.851 65.5311 135.687 68.1513C137.03 70.0687 136.893 72.7035 135.088 74.1948C132.951 75.9604 130.619 77.3414 128.16 78.29C124.536 79.688 120.717 80.1159 116.952 79.5459C113.187 78.9759 109.56 77.4208 106.308 74.9819C105.932 74.7 105.562 74.4069 105.198 74.1032C101.123 77.5072 96.3666 79.4723 91.4365 79.7552C87.1992 79.9984 82.9988 78.9894 79.1667 76.8452V102.699C80.1939 102.943 81.1974 103.37 82.1021 103.921C83.3223 104.663 84.6585 105.246 86.0745 105.648C89.2249 106.541 92.6082 106.486 95.737 105.492C98.8659 104.497 101.579 102.615 103.486 100.114C104.18 99.2036 104.755 98.2279 105.202 97.2082C106.488 94.2786 108.936 91.5284 112.129 91.4657C115.323 91.403 118.022 93.9787 117.283 97.0894C116.91 98.6602 116.374 100.196 115.683 101.675L115.752 101.697C116.746 102.012 117.756 102.22 118.772 102.321C122.019 102.642 125.394 104.437 126.068 107.63C126.643 110.36 125.07 113.169 122.293 113.439C119.371 113.723 116.42 113.412 113.558 112.504C111.946 111.993 110.381 111.298 108.883 110.434C106.155 112.707 102.945 114.465 99.435 115.58C93.9861 117.312 88.0943 117.407 82.6079 115.852C81.4266 115.517 80.2772 115.11 79.1667 114.634V128.906C79.1667 140.566 87.5521 150 97.9167 150C106.198 150 113.125 143.936 115.625 135.586C116.641 135.791 117.682 135.938 118.75 135.938C129.115 135.938 137.5 126.504 137.5 114.844C137.5 113.438 137.37 112.061 137.135 110.713C144.687 107.197 150 98.8184 150 89.0625Z" fill="white"/>
</svg>
