<svg width="193" height="193" viewBox="0 0 193 193" fill="none" xmlns="http://www.w3.org/2000/svg">
<path d="M65.171 158.053C63.7464 160.903 64.895 164.39 67.8456 165.591C82.7057 171.642 99.1703 172.786 114.808 168.765C132.313 164.263 147.604 153.591 157.867 138.712C168.13 123.832 172.674 105.747 170.663 87.7842C168.652 69.8211 160.221 53.1885 146.922 40.947C133.623 28.7055 116.351 21.6786 98.2827 21.1594C80.2149 20.6402 62.5673 26.6636 48.5873 38.1212C34.6073 49.5788 25.2354 65.6997 22.1962 83.5177C19.4814 99.4339 21.9826 115.748 29.2412 130.057C30.6824 132.898 34.2528 133.754 36.9749 132.099V132.099C39.697 130.444 40.5357 126.905 39.1343 124.044C33.2979 112.128 31.3217 98.6319 33.5688 85.4576C36.1406 70.3804 44.0708 56.7393 55.9003 47.0441C67.7299 37.349 82.6628 32.2522 97.9514 32.6915C113.24 33.1309 127.856 39.0768 139.109 49.4353C150.362 59.7937 157.496 73.8678 159.197 89.0677C160.899 104.268 157.054 119.571 148.37 132.161C139.686 144.752 126.747 153.783 111.934 157.592C98.9907 160.92 85.3773 160.066 73.0201 155.235C70.053 154.075 66.5955 155.203 65.171 158.053V158.053Z" fill="white"/>
<line x1="33.2444" y1="128.021" x2="15.0215" y2="170.013" stroke="white" stroke-width="12" stroke-linecap="round"/>
<line x1="69.4016" y1="160.175" x2="15.1753" y2="170.856" stroke="white" stroke-width="12" stroke-linecap="round"/>
<circle cx="67" cy="84" r="14" fill="white"/>
<ellipse cx="95.5" cy="101" rx="10.5" ry="14" fill="white"/>
<circle cx="124" cy="84" r="14" fill="white"/>
<path d="M129.959 111.24C130.902 111.147 131.8 111.727 131.96 112.661C132.39 115.161 131.998 117.69 130.795 120.119C129.339 123.062 126.73 125.784 123.16 128.088C119.59 130.392 115.148 132.218 110.159 133.434C105.171 134.65 99.7619 135.224 94.3275 135.115C88.893 135.006 83.5706 134.217 78.7491 132.805C73.9276 131.392 69.729 129.392 66.4601 126.952C63.1911 124.511 60.9345 121.691 59.8552 118.697C58.9457 116.175 58.8914 113.584 59.6868 111.058C59.9547 110.207 60.83 109.736 61.7133 109.86L72.4704 111.372C73.7872 111.558 74.5379 112.978 74.4738 114.307C74.4306 115.203 74.5681 116.103 74.8872 116.988C75.513 118.723 76.8214 120.358 78.7167 121.774C80.6121 123.189 83.0464 124.348 85.8419 125.167C88.6374 125.986 91.7234 126.444 94.8743 126.507C98.0252 126.57 101.161 126.237 104.054 125.532C106.946 124.827 109.521 123.768 111.591 122.432C113.662 121.097 115.174 119.518 116.019 117.812C116.474 116.891 116.729 115.946 116.782 114.997C116.851 113.73 117.657 112.454 118.919 112.33L129.959 111.24Z" fill="white"/>
</svg>
