<svg width="21" height="21" viewBox="0 0 21 21" fill="none" xmlns="http://www.w3.org/2000/svg">
<path d="M9.41502 2.74658C9.2597 2.90191 9.11023 3.05938 8.96665 3.21878C7.98027 4.31378 6.11724 4.52765 5.1849 3.38627L3.3763 1.17217C3.05313 0.774418 2.4427 0.798588 2.12609 1.20566C-0.280421 4.3027 -0.0774032 8.76148 2.74654 11.5854C2.90186 11.7407 3.05933 11.8902 3.21873 12.0338C4.31374 13.0202 4.5276 14.8832 3.38622 15.8155L1.17212 17.6241C0.77437 17.9473 0.798539 18.5577 1.20561 18.8743C4.30265 21.2809 8.76143 21.0778 11.5854 18.2539C11.7407 18.0986 11.8902 17.9411 12.0337 17.7817C13.0201 16.6867 14.8832 16.4728 15.8155 17.6142L17.6241 19.8283C17.948 20.2247 18.5577 20.2019 18.8743 19.7948C21.2808 16.6978 21.0778 12.239 18.2539 9.41507C18.0985 9.25975 17.9411 9.11028 17.7817 8.9667C16.6867 7.98031 16.4728 6.11729 17.6142 5.18495L19.8283 3.37635C20.225 3.05215 20.2019 2.44275 19.7948 2.12614C16.6977 -0.280372 12.239 -0.0773553 9.41502 2.74658ZM11.6051 11.6051C11.3865 11.8236 11.1081 11.9724 10.805 12.0327C10.5019 12.093 10.1878 12.0621 9.90225 11.9438C9.61674 11.8255 9.37271 11.6253 9.20102 11.3683C9.02934 11.1114 8.9377 10.8093 8.9377 10.5002C8.9377 10.1912 9.02934 9.88912 9.20102 9.63217C9.37271 9.37521 9.61674 9.17494 9.90225 9.05668C10.1878 8.93842 10.5019 8.90748 10.805 8.96777C11.1081 9.02806 11.3865 9.17687 11.6051 9.39539C11.8981 9.68842 12.0627 10.0858 12.0627 10.5002C12.0627 10.9146 11.8981 11.3121 11.6051 11.6051Z" fill="white"/>
</svg>
