<svg width="50" height="50" viewBox="0 0 50 50" fill="none" xmlns="http://www.w3.org/2000/svg">
<path d="M33.1714 23.75C33.1714 25.275 31.8857 26.525 30.2571 26.525C28.6571 26.525 27.3429 25.275 27.3429 23.75C27.3429 22.225 28.6286 20.975 30.2571 20.975C31.8857 20.975 33.1714 22.225 33.1714 23.75ZM19.8286 20.975C18.2 20.975 16.9143 22.225 16.9143 23.75C16.9143 25.275 18.2286 26.525 19.8286 26.525C21.4571 26.525 22.7429 25.275 22.7429 23.75C22.7714 22.225 21.4571 20.975 19.8286 20.975ZM50 5.15V50C42.802 44.4342 45.104 46.2766 36.7429 39.475L38.2571 44.1H5.85714C2.62857 44.1 0 41.8 0 38.95V5.15C0 2.3 2.62857 0 5.85714 0H44.1429C47.3714 0 50 2.3 50 5.15ZM41.8571 28.85C41.8571 20.8 37.7429 14.275 37.7429 14.275C33.6286 11.575 29.7143 11.65 29.7143 11.65L29.3143 12.05C34.1714 13.35 36.4286 15.225 36.4286 15.225C29.6416 11.9702 21.6692 11.9696 15.0857 14.5C14.0286 14.925 13.4 15.225 13.4 15.225C13.4 15.225 15.7714 13.25 20.9143 11.95L20.6286 11.65C20.6286 11.65 16.7143 11.575 12.6 14.275C12.6 14.275 8.48571 20.8 8.48571 28.85C8.48571 28.85 10.8857 32.475 17.2 32.65C17.2 32.65 18.2571 31.525 19.1143 30.575C15.4857 29.625 14.1143 27.625 14.1143 27.625C14.5346 27.8824 15.2277 28.2161 15.2857 28.25C20.1083 30.6131 26.9585 31.3873 33.1143 29.125C34.1143 28.8 35.2286 28.325 36.4 27.65C36.4 27.65 34.9714 29.7 31.2286 30.625C32.0857 31.575 33.1143 32.65 33.1143 32.65C39.4286 32.475 41.8571 28.85 41.8571 28.85Z" fill="white"/>
</svg>
