<svg width="64" height="64" viewBox="0 0 64 64" fill="none" xmlns="http://www.w3.org/2000/svg">
<g clip-path="url(#clip0_24_67)">
<path d="M33.9895 27.5802C62.8899 22.2773 64 10.2955 64 10.2955C64 10.2955 61.7241 47.4287 40.6033 49.3933C13.8384 51.8829 9.83972 63.8859 9.83972 63.8859C9.83972 63.8859 16.9973 30.6981 33.9895 27.5802Z" fill="white"/>
<path d="M16.5513 25.9419C41.0395 16.083 38.7966 0 38.7966 0C38.7966 0 52.3167 32.8102 32.0484 40.4594C9.40653 49.0042 10.414 63.6001 10.414 63.6001C10.414 63.6001 2.16905 31.7322 16.5513 25.9419Z" fill="#DDDDDD"/>
<path d="M2.1254 34.6641C15.8837 17.4177 12.7891 5.32158 12.7891 5.32158C12.7891 5.32158 30.4164 26.3335 18.4215 39.3476C5.02206 53.8857 10.8576 64 10.8576 64C10.8576 64 -5.76584 44.556 2.1254 34.6641Z" fill="#BEBEBE"/>
</g>
<defs>
<clipPath id="clip0_24_67">
<rect width="64" height="64" fill="white"/>
</clipPath>
</defs>
</svg>
