<svg width="25" height="25" viewBox="0 0 25 25" fill="none" xmlns="http://www.w3.org/2000/svg">
<path d="M12.1094 0C5.41704 0 0 5.41597 0 12.1094C0 18.8017 5.41597 24.2188 12.1094 24.2188C14.4606 24.2188 16.7647 23.5283 18.7211 22.2547C19.3073 21.8731 19.4352 21.0688 18.9922 20.5276L18.4953 19.9205C18.1207 19.4629 17.4611 19.3508 16.9634 19.6701C15.5234 20.5936 13.8337 21.0938 12.1094 21.0938C7.15537 21.0938 3.125 17.0634 3.125 12.1094C3.125 7.15537 7.15537 3.125 12.1094 3.125C16.999 3.125 21.0938 5.93843 21.0938 10.9375C21.0938 12.8313 20.0638 14.8312 18.2534 15.0241C17.4063 15.0019 17.4277 14.3963 17.5954 13.5581L18.7396 7.64448C18.8795 6.92139 18.3256 6.25 17.5891 6.25H15.3928C15.2306 6.25 15.0741 6.30969 14.9531 6.4177C14.8322 6.52571 14.7552 6.67446 14.7369 6.8356L14.7364 6.84009C14.0188 5.96602 12.7614 5.77686 11.8082 5.77686C8.16655 5.77686 5.07812 8.81562 5.07812 13.1724C5.07812 16.361 6.87427 18.3418 9.76562 18.3418C11.0832 18.3418 12.5668 17.5783 13.4273 16.4701C13.8922 18.1353 15.4104 18.1353 16.8799 18.1353C22.1977 18.1353 24.2188 14.6386 24.2188 10.9375C24.2188 4.27993 18.8488 0 12.1094 0ZM11.0508 14.8647C9.9644 14.8647 9.28955 14.1019 9.28955 12.874C9.28955 10.6771 10.7924 9.32275 12.1523 9.32275C13.2408 9.32275 13.8907 10.0669 13.8907 11.3135C13.8907 13.5137 12.2366 14.8647 11.0508 14.8647Z" fill="black"/>
</svg>
