<svg width="22" height="22" viewBox="0 0 22 22" fill="none" xmlns="http://www.w3.org/2000/svg">
<path d="M21.875 15.2344V20.7031C21.8754 20.8571 21.8453 21.0097 21.7866 21.152C21.7278 21.2944 21.6415 21.4237 21.5326 21.5326C21.4237 21.6415 21.2944 21.7278 21.152 21.7866C21.0097 21.8453 20.8571 21.8754 20.7031 21.875H15.2344C14.1899 21.875 13.6675 20.6104 14.4043 19.8731L16.1719 18.1055L10.9375 12.8711L5.70166 18.1104L7.47071 19.8731C8.20752 20.6104 7.68506 21.875 6.64063 21.875H1.17188C1.01788 21.8754 0.865318 21.8453 0.722965 21.7866C0.580612 21.7278 0.451272 21.6415 0.342376 21.5326C0.233481 21.4237 0.147176 21.2944 0.0884202 21.152C0.0296649 21.0097 -0.000382773 20.8571 3.68086e-06 20.7031V15.2344C3.68086e-06 14.1895 1.26416 13.667 2.00196 14.4043L3.76905 16.1719L9.00684 10.9375L3.76856 5.69825L2.00196 7.47071C1.26465 8.20801 3.68086e-06 7.68555 3.68086e-06 6.64063V1.17188C-0.000382773 1.01788 0.0296649 0.865318 0.0884202 0.722965C0.147176 0.580612 0.233481 0.451272 0.342376 0.342376C0.451272 0.23348 0.580612 0.147176 0.722965 0.0884203C0.865318 0.0296649 1.01788 -0.000382773 1.17188 3.68085e-06H6.64063C7.68506 3.68085e-06 8.20752 1.26465 7.47071 2.00196L5.70313 3.76954L10.9375 9.00391L16.1733 3.76465L14.4043 2.00196C13.6675 1.26465 14.1899 3.68085e-06 15.2344 3.68085e-06H20.7031C20.8571 -0.000382773 21.0097 0.0296649 21.152 0.0884203C21.2944 0.147176 21.4237 0.23348 21.5326 0.342376C21.6415 0.451272 21.7278 0.580612 21.7866 0.722965C21.8453 0.865318 21.8754 1.01788 21.875 1.17188V6.64063C21.875 7.68555 20.6108 8.20801 19.8731 7.47071L18.106 5.70313L12.8682 10.9375L18.1065 16.1768L19.8731 14.4092C20.6104 13.667 21.875 14.1895 21.875 15.2344Z" fill="white"/>
</svg>
