<svg width="830" height="462" viewBox="0 0 830 462" fill="none" xmlns="http://www.w3.org/2000/svg">
<path d="M41 56H270.553" stroke="white" stroke-width="81" stroke-linecap="round"/>
<path d="M158.388 398.611V74" stroke="white" stroke-width="81"/>
<path d="M41.0747 415.681H270.627" stroke="white" stroke-width="81" stroke-linecap="round"/>
<path d="M357.113 416.17V56.4894" stroke="white" stroke-width="65" stroke-linecap="round"/>
<path d="M500.356 416.17L367.06 259.085" stroke="white" stroke-width="65" stroke-linecap="round"/>
<path d="M350.913 50.7151C350.913 40.9313 358.852 32.9396 368.616 33.5697C385.272 34.6446 401.623 37.2329 417.15 41.2696C438.15 46.7292 457.231 54.7314 473.303 64.8194C489.376 74.9074 502.125 86.8836 510.823 100.064C519.522 113.245 523.999 127.372 523.999 141.638C523.999 155.905 519.522 170.032 510.823 183.212C502.125 196.393 489.376 208.369 473.303 218.457C457.231 228.545 438.15 236.547 417.15 242.007C401.623 246.044 385.272 248.632 368.616 249.707C358.852 250.337 350.913 242.345 350.913 232.562C350.913 222.778 358.862 214.938 368.601 214C377.832 213.111 386.88 211.527 395.548 209.274C409.699 205.595 422.557 200.202 433.388 193.404C444.219 186.606 452.81 178.536 458.672 169.654C464.533 160.772 467.55 151.252 467.55 141.638C467.55 132.024 464.534 122.505 458.672 113.623C452.81 104.741 444.219 96.6703 433.388 89.8723C422.557 83.0743 409.699 77.6818 395.548 74.0027C386.88 71.7493 377.832 70.1657 368.601 69.2768C358.862 68.339 350.913 60.4988 350.913 50.7151Z" fill="white" stroke="white" stroke-width="28"/>
<path d="M825.391 50.6035C830.744 39.5642 827.379 26.088 816.583 20.2597C792.035 7.0073 765.372 0.0672224 738.314 0.00048591C704.448 -0.0830378 671.167 10.6026 641.842 30.9742C612.518 51.3458 588.193 80.6792 571.333 116.001C554.474 151.323 545.68 191.377 545.842 232.104C546.003 272.831 555.116 312.782 572.255 347.908C589.394 383.035 613.951 412.087 643.436 432.121C672.921 452.155 706.286 462.457 740.149 461.984C767.229 461.606 793.857 454.348 818.315 440.793C829.032 434.853 832.265 421.367 826.824 410.389L817.248 391.068C810.404 377.256 792.796 373.145 778.467 378.829C765.915 383.809 752.75 386.468 739.422 386.654C716.603 386.972 694.119 380.03 674.25 366.53C654.381 353.029 637.833 333.452 626.283 309.781C614.733 286.111 608.593 259.188 608.484 231.744C608.375 204.299 614.301 177.308 625.662 153.505C637.023 129.703 653.415 109.936 673.176 96.2084C692.937 82.4806 715.364 75.2799 738.185 75.3361C751.516 75.369 764.704 77.8775 777.297 82.714C791.671 88.2344 809.215 83.9644 815.933 70.1097L825.391 50.6035Z" fill="white"/>
<path d="M825.391 50.6035C830.744 39.5642 827.379 26.088 816.583 20.2597C792.035 7.0073 765.372 0.0672224 738.314 0.00048591C704.448 -0.0830378 671.167 10.6026 641.842 30.9742C612.518 51.3458 588.193 80.6792 571.333 116.001C554.474 151.323 545.68 191.377 545.842 232.104C546.003 272.831 555.116 312.782 572.255 347.908C589.394 383.035 613.951 412.087 643.436 432.121C672.921 452.155 706.286 462.457 740.149 461.984C767.229 461.606 793.857 454.348 818.315 440.793C829.032 434.853 832.265 421.367 826.824 410.389L817.248 391.068C810.404 377.256 792.796 373.145 778.467 378.829C765.915 383.809 752.75 386.468 739.422 386.654C716.603 386.972 694.119 380.03 674.25 366.53C654.381 353.029 637.833 333.452 626.283 309.781C614.733 286.111 608.593 259.188 608.484 231.744C608.375 204.299 614.301 177.308 625.662 153.505C637.023 129.703 653.415 109.936 673.176 96.2084C692.937 82.4806 715.364 75.2799 738.185 75.3361C751.516 75.369 764.704 77.8775 777.297 82.714C791.671 88.2344 809.215 83.9644 815.933 70.1097L825.391 50.6035Z" stroke="black"/>
</svg>
