<svg width="191" height="130" viewBox="0 0 191 130" fill="none" xmlns="http://www.w3.org/2000/svg">
<path fill-rule="evenodd" clip-rule="evenodd" d="M164 47.726C154.529 31.975 124.926 20.4837 89.8733 20.4837C52.2616 20.4837 20.924 33.7141 14 51.2409C14.5527 27.6036 47.9929 8.54016 89.1637 8.54016C128.273 8.54016 160.406 25.7421 164 47.726Z" fill="white"/>
<path fill-rule="evenodd" clip-rule="evenodd" d="M14 88.9163C23.4706 104.667 53.0739 116.159 88.1267 116.159C125.738 116.159 157.076 102.928 164 85.4015C163.447 109.039 130.007 128.102 88.8363 128.102C49.7273 128.102 17.5939 110.9 14 88.9163Z" fill="white"/>
<path d="M17.5909 49.996H21.8182V74.9506C21.8182 77.1778 21.4091 79.0699 20.5909 80.6267C19.7727 82.1835 18.6193 83.3653 17.1307 84.1722C15.642 84.979 13.8864 85.3824 11.8636 85.3824C9.95455 85.3824 8.25568 85.0358 6.76705 84.3426C5.27841 83.6381 4.10795 82.6381 3.25568 81.3426C2.40341 80.0472 1.97727 78.5074 1.97727 76.7233H6.13636C6.13636 77.7119 6.38068 78.5756 6.86932 79.3142C7.36932 80.0415 8.05114 80.6097 8.91477 81.0188C9.77841 81.4278 10.7614 81.6324 11.8636 81.6324C13.0795 81.6324 14.1136 81.3767 14.9659 80.8653C15.8182 80.354 16.4659 79.604 16.9091 78.6153C17.3636 77.6153 17.5909 76.3938 17.5909 74.9506V49.996ZM46.2443 74.2006V58.7233H50.267V84.9051H46.2443V80.4733H45.9716C45.358 81.8028 44.4034 82.9335 43.108 83.8653C41.8125 84.7858 40.1761 85.246 38.1989 85.246C36.5625 85.246 35.108 84.8881 33.8352 84.1722C32.5625 83.4449 31.5625 82.354 30.8352 80.8994C30.108 79.4335 29.7443 77.5869 29.7443 75.3597V58.7233H33.767V75.0869C33.767 76.996 34.3011 78.5188 35.3693 79.6551C36.4489 80.7915 37.8239 81.3597 39.4943 81.3597C40.4943 81.3597 41.5114 81.104 42.5455 80.5926C43.5909 80.0813 44.4659 79.2972 45.1705 78.2403C45.8864 77.1835 46.2443 75.8369 46.2443 74.2006ZM57.6349 94.7233V58.7233H61.5213V62.8824H61.9986C62.294 62.4278 62.7031 61.8483 63.2259 61.1438C63.7599 60.4278 64.5213 59.7915 65.5099 59.2347C66.5099 58.6665 67.8622 58.3824 69.5668 58.3824C71.7713 58.3824 73.7145 58.9335 75.3963 60.0358C77.0781 61.1381 78.3906 62.7006 79.3338 64.7233C80.277 66.746 80.7486 69.1324 80.7486 71.8824C80.7486 74.6551 80.277 77.0585 79.3338 79.0926C78.3906 81.1153 77.0838 82.6835 75.4134 83.7972C73.7429 84.8994 71.8168 85.4506 69.6349 85.4506C67.9531 85.4506 66.6065 85.1722 65.5952 84.6153C64.5838 84.0472 63.8054 83.4051 63.2599 82.6892C62.7145 81.9619 62.294 81.3597 61.9986 80.8824H61.6577V94.7233H57.6349ZM61.5895 71.8142C61.5895 73.7915 61.8793 75.5358 62.4588 77.0472C63.0384 78.5472 63.8849 79.7233 64.9986 80.5756C66.1122 81.4165 67.4759 81.8369 69.0895 81.8369C70.7713 81.8369 72.1747 81.3938 73.2997 80.5074C74.4361 79.6097 75.2884 78.4051 75.8565 76.8938C76.4361 75.371 76.7259 73.6778 76.7259 71.8142C76.7259 69.9733 76.4418 68.3142 75.8736 66.8369C75.3168 65.3483 74.4702 64.1722 73.3338 63.3085C72.2088 62.4335 70.794 61.996 69.0895 61.996C67.4531 61.996 66.0781 62.4108 64.9645 63.2403C63.8509 64.0585 63.0099 65.2063 62.4418 66.6835C61.8736 68.1494 61.5895 69.8597 61.5895 71.8142ZM88.5384 94.7233C87.8565 94.7233 87.2486 94.6665 86.7145 94.5528C86.1804 94.4506 85.8111 94.3483 85.6065 94.246L86.6293 90.7006C87.6065 90.9506 88.4702 91.0415 89.2202 90.9733C89.9702 90.9051 90.6349 90.5699 91.2145 89.9676C91.8054 89.3767 92.3452 88.4165 92.8338 87.0869L93.5838 85.0415L83.902 58.7233H88.2656L95.4929 79.5869H95.7656L102.993 58.7233H107.357L96.2429 88.7233C95.7429 90.0756 95.1236 91.1949 94.3849 92.0813C93.6463 92.979 92.7884 93.6438 91.8111 94.0756C90.8452 94.5074 89.7543 94.7233 88.5384 94.7233ZM124.053 58.7233V62.1324H110.484V58.7233H124.053ZM114.439 52.4506H118.462V77.4051C118.462 78.5415 118.626 79.3938 118.956 79.9619C119.297 80.5188 119.729 80.8938 120.251 81.0869C120.786 81.2688 121.348 81.3597 121.939 81.3597C122.382 81.3597 122.746 81.3369 123.03 81.2915C123.314 81.2347 123.541 81.1892 123.712 81.1551L124.53 84.7688C124.257 84.871 123.876 84.9733 123.388 85.0756C122.899 85.1892 122.28 85.246 121.53 85.246C120.393 85.246 119.28 85.0017 118.189 84.5131C117.109 84.0244 116.212 83.2801 115.496 82.2801C114.791 81.2801 114.439 80.0188 114.439 78.496V52.4506ZM140.8 85.4506C138.277 85.4506 136.101 84.8938 134.271 83.7801C132.453 82.6551 131.05 81.0869 130.061 79.0756C129.084 77.0528 128.595 74.7006 128.595 72.0188C128.595 69.3369 129.084 66.9733 130.061 64.9278C131.05 62.871 132.425 61.2688 134.186 60.121C135.959 58.9619 138.027 58.3824 140.391 58.3824C141.754 58.3824 143.101 58.6097 144.43 59.0642C145.76 59.5188 146.97 60.2574 148.061 61.2801C149.152 62.2915 150.021 63.6324 150.669 65.3028C151.317 66.9733 151.641 69.0301 151.641 71.4733V73.1778H131.459V69.7006H147.55C147.55 68.2233 147.254 66.9051 146.663 65.746C146.084 64.5869 145.254 63.6722 144.175 63.0017C143.107 62.3313 141.845 61.996 140.391 61.996C138.788 61.996 137.402 62.3938 136.232 63.1892C135.072 63.9733 134.18 64.996 133.555 66.2574C132.93 67.5188 132.618 68.871 132.618 70.3142V72.6324C132.618 74.6097 132.959 76.2858 133.641 77.6608C134.334 79.0244 135.294 80.0642 136.521 80.7801C137.749 81.4847 139.175 81.8369 140.8 81.8369C141.857 81.8369 142.811 81.6892 143.663 81.3938C144.527 81.0869 145.271 80.6324 145.896 80.0301C146.521 79.4165 147.004 78.6551 147.345 77.746L151.232 78.8369C150.822 80.1551 150.135 81.3142 149.169 82.3142C148.203 83.3028 147.01 84.0756 145.589 84.6324C144.169 85.1778 142.572 85.4506 140.8 85.4506ZM157.76 84.9051V58.7233H161.646V62.6778H161.919C162.396 61.3824 163.26 60.3313 164.51 59.5244C165.76 58.7176 167.169 58.3142 168.737 58.3142C169.033 58.3142 169.402 58.3199 169.845 58.3313C170.288 58.3426 170.624 58.3597 170.851 58.3824V62.4733C170.714 62.4392 170.402 62.3881 169.913 62.3199C169.436 62.2403 168.93 62.2006 168.396 62.2006C167.124 62.2006 165.987 62.4676 164.987 63.0017C163.999 63.5244 163.214 64.2517 162.635 65.1835C162.067 66.104 161.783 67.1551 161.783 68.3369V84.9051H157.76Z" fill="white"/>
<ellipse cx="12" cy="23.2482" rx="6" ry="5.21898" fill="#F37726"/>
<ellipse cx="139.5" cy="7.59124" rx="8.5" ry="7.59124" fill="#F37726"/>
<ellipse cx="14.5" cy="119.088" rx="11.5" ry="10.9124" fill="#F37726"/>
</svg>
