<svg width="170" height="175" viewBox="0 0 170 175" fill="none" xmlns="http://www.w3.org/2000/svg">
<path d="M153.999 64.2463C145.57 43.0431 119.221 27.5741 88.0227 27.5741C54.5463 27.5741 26.6542 45.3842 20.4914 68.9779C20.9834 37.1586 50.7469 11.4963 87.3911 11.4963C122.2 11.4963 150.8 34.6527 153.999 64.2463Z" fill="white"/>
<path d="M153.999 64.2463C145.57 43.0431 119.221 27.5741 88.0227 27.5741C54.5463 27.5741 26.6542 45.3842 20.4914 68.9779C20.9834 37.1586 50.7469 11.4963 87.3911 11.4963C122.2 11.4963 150.8 34.6527 153.999 64.2463Z" stroke="white"/>
<path fill-rule="evenodd" clip-rule="evenodd" d="M20.4914 119.695C28.9208 140.897 55.2693 156.367 86.4681 156.367C119.944 156.367 147.837 138.556 153.999 114.963C153.507 146.783 123.744 172.444 87.0997 172.444C52.2906 172.444 23.6902 149.288 20.4914 119.695Z" fill="white"/>
<mask id="path-3-inside-1_24_66" fill="white">
<path d="M23.6875 67.3021H27.45V100.895C27.45 103.893 27.0859 106.44 26.3577 108.536C25.6294 110.631 24.6028 112.222 23.2779 113.308C21.9529 114.394 20.3903 114.937 18.5899 114.937C16.8908 114.937 15.3787 114.471 14.0537 113.538C12.7288 112.589 11.687 111.243 10.9284 109.499C10.1699 107.756 9.79057 105.683 9.79057 103.281H13.4924C13.4924 104.612 13.7098 105.775 14.1448 106.769C14.5898 107.748 15.1966 108.513 15.9653 109.063C16.734 109.614 17.6089 109.889 18.5899 109.889C19.6721 109.889 20.5925 109.545 21.3511 108.857C22.1097 108.169 22.6862 107.159 23.0807 105.828C23.4852 104.482 23.6875 102.837 23.6875 100.895V67.3021ZM49.1905 99.8851V79.0504H52.771V114.295H49.1905V108.329H48.9478C48.4017 110.119 47.5521 111.641 46.3991 112.895C45.246 114.134 43.7895 114.754 42.0297 114.754C40.5732 114.754 39.2787 114.272 38.1458 113.308C37.013 112.329 36.123 110.861 35.4756 108.903C34.8284 106.929 34.5047 104.444 34.5047 101.445V79.0504H38.0851V101.078C38.0851 103.648 38.5605 105.698 39.5112 107.228C40.4721 108.757 41.696 109.522 43.1827 109.522C44.0727 109.522 44.978 109.178 45.8984 108.49C46.8289 107.801 47.6077 106.746 48.2348 105.323C48.872 103.901 49.1905 102.088 49.1905 99.8851ZM59.3288 127.512V79.0504H62.7879V84.6491H63.2127C63.4756 84.0372 63.8397 83.2571 64.3051 82.3087C64.7803 81.3449 65.458 80.4883 66.3379 79.7388C67.228 78.9739 68.4316 78.5915 69.9488 78.5915C71.9109 78.5915 73.6405 79.3333 75.1374 80.8172C76.6342 82.301 77.8024 84.4044 78.6419 87.1272C79.4814 89.8501 79.9012 93.0626 79.9012 96.7645C79.9012 100.497 79.4814 103.732 78.6419 106.47C77.8024 109.193 76.6393 111.304 75.1526 112.804C73.6657 114.287 71.9514 115.029 70.0094 115.029C68.5125 115.029 67.314 114.655 66.4139 113.905C65.5137 113.14 64.8208 112.276 64.3353 111.312C63.8499 110.333 63.4756 109.522 63.2127 108.88H62.9093V127.512H59.3288ZM62.8486 96.6727C62.8486 99.3344 63.1065 101.683 63.6223 103.717C64.1382 105.736 64.8916 107.319 65.8829 108.467C66.874 109.599 68.0878 110.165 69.524 110.165C71.0209 110.165 72.27 109.568 73.2713 108.375C74.2827 107.167 75.0413 105.545 75.547 103.511C76.0628 101.461 76.3208 99.1814 76.3208 96.6727C76.3208 94.1945 76.0679 91.9611 75.5622 89.9725C75.0666 87.9686 74.3131 86.3854 73.3016 85.2227C72.3003 84.0448 71.0411 83.4559 69.524 83.4559C68.0675 83.4559 66.8437 84.0143 65.8525 85.1309C64.8613 86.2323 64.1128 87.7774 63.6072 89.766C63.1014 91.7393 62.8486 94.0416 62.8486 96.6727ZM86.8345 127.512C86.2276 127.512 85.6865 127.435 85.2111 127.282C84.7358 127.145 84.4071 127.007 84.225 126.869L85.1353 122.097C86.0051 122.433 86.7738 122.555 87.4413 122.464C88.1089 122.372 88.7005 121.921 89.2164 121.11C89.7423 120.314 90.2228 119.022 90.6576 117.232L91.3252 114.479L82.7079 79.0504H86.5917L93.0244 107.136H93.2671L99.6999 79.0504H103.584L93.6919 119.435C93.2469 121.255 92.6957 122.762 92.0382 123.955C91.3808 125.164 90.6172 126.059 89.7474 126.64C88.8877 127.221 87.9167 127.512 86.8345 127.512ZM118.444 79.0504V83.6395H106.367V79.0504H118.444ZM109.887 70.6064H113.468V104.199C113.468 105.729 113.614 106.876 113.908 107.641C114.211 108.39 114.596 108.895 115.06 109.155C115.537 109.4 116.037 109.522 116.563 109.522C116.957 109.522 117.281 109.492 117.534 109.431C117.787 109.354 117.989 109.293 118.141 109.247L118.869 114.111C118.626 114.249 118.287 114.387 117.852 114.524C117.417 114.677 116.866 114.754 116.199 114.754C115.187 114.754 114.196 114.425 113.225 113.767C112.264 113.109 111.465 112.107 110.828 110.761C110.201 109.415 109.887 107.717 109.887 105.667V70.6064ZM133.35 115.029C131.104 115.029 129.168 114.28 127.539 112.781C125.921 111.266 124.672 109.155 123.792 106.448C122.922 103.725 122.487 100.558 122.487 96.9481C122.487 93.3378 122.922 90.1561 123.792 87.4025C124.672 84.6338 125.896 82.477 127.463 80.9319C129.041 79.3715 130.882 78.5915 132.986 78.5915C134.199 78.5915 135.398 78.8974 136.581 79.5093C137.765 80.1212 138.842 81.1155 139.813 82.4922C140.784 83.8537 141.557 85.6587 142.134 87.9074C142.711 90.1561 142.999 92.9248 142.999 96.2138V98.5083H125.036V93.8274H139.358C139.358 91.8388 139.094 90.0643 138.568 88.504C138.053 86.9436 137.314 85.7123 136.354 84.8097C135.403 83.9073 134.28 83.4559 132.986 83.4559C131.559 83.4559 130.326 83.9914 129.284 85.0621C128.252 86.1176 127.458 87.4943 126.902 89.1924C126.345 90.8904 126.068 92.7107 126.068 94.6534V97.7741C126.068 100.436 126.371 102.692 126.978 104.543C127.595 106.379 128.449 107.778 129.542 108.742C130.635 109.691 131.904 110.165 133.35 110.165C134.291 110.165 135.14 109.966 135.898 109.568C136.667 109.155 137.329 108.543 137.886 107.732C138.442 106.906 138.872 105.882 139.175 104.658L142.635 106.126C142.27 107.901 141.659 109.461 140.799 110.807C139.939 112.138 138.877 113.178 137.613 113.928C136.349 114.662 134.927 115.029 133.35 115.029ZM148.445 114.295V79.0504H151.904V84.3737H152.147C152.572 82.6299 153.341 81.215 154.453 80.1288C155.566 79.0427 156.82 78.4996 158.215 78.4996C158.479 78.4996 158.807 78.5073 159.202 78.5227C159.596 78.5379 159.895 78.5609 160.097 78.5915V84.0984C159.975 84.0525 159.697 83.9837 159.262 83.8919C158.838 83.7848 158.387 83.7313 157.912 83.7313C156.78 83.7313 155.768 84.0907 154.878 84.8097C153.998 85.5134 153.3 86.4924 152.784 87.7468C152.279 88.9859 152.026 90.4008 152.026 91.9917V114.295H148.445Z"/>
</mask>
<path d="M23.6875 67.3021H27.45V100.895C27.45 103.893 27.0859 106.44 26.3577 108.536C25.6294 110.631 24.6028 112.222 23.2779 113.308C21.9529 114.394 20.3903 114.937 18.5899 114.937C16.8908 114.937 15.3787 114.471 14.0537 113.538C12.7288 112.589 11.687 111.243 10.9284 109.499C10.1699 107.756 9.79057 105.683 9.79057 103.281H13.4924C13.4924 104.612 13.7098 105.775 14.1448 106.769C14.5898 107.748 15.1966 108.513 15.9653 109.063C16.734 109.614 17.6089 109.889 18.5899 109.889C19.6721 109.889 20.5925 109.545 21.3511 108.857C22.1097 108.169 22.6862 107.159 23.0807 105.828C23.4852 104.482 23.6875 102.837 23.6875 100.895V67.3021ZM49.1905 99.8851V79.0504H52.771V114.295H49.1905V108.329H48.9478C48.4017 110.119 47.5521 111.641 46.3991 112.895C45.246 114.134 43.7895 114.754 42.0297 114.754C40.5732 114.754 39.2787 114.272 38.1458 113.308C37.013 112.329 36.123 110.861 35.4756 108.903C34.8284 106.929 34.5047 104.444 34.5047 101.445V79.0504H38.0851V101.078C38.0851 103.648 38.5605 105.698 39.5112 107.228C40.4721 108.757 41.696 109.522 43.1827 109.522C44.0727 109.522 44.978 109.178 45.8984 108.49C46.8289 107.801 47.6077 106.746 48.2348 105.323C48.872 103.901 49.1905 102.088 49.1905 99.8851ZM59.3288 127.512V79.0504H62.7879V84.6491H63.2127C63.4756 84.0372 63.8397 83.2571 64.3051 82.3087C64.7803 81.3449 65.458 80.4883 66.3379 79.7388C67.228 78.9739 68.4316 78.5915 69.9488 78.5915C71.9109 78.5915 73.6405 79.3333 75.1374 80.8172C76.6342 82.301 77.8024 84.4044 78.6419 87.1272C79.4814 89.8501 79.9012 93.0626 79.9012 96.7645C79.9012 100.497 79.4814 103.732 78.6419 106.47C77.8024 109.193 76.6393 111.304 75.1526 112.804C73.6657 114.287 71.9514 115.029 70.0094 115.029C68.5125 115.029 67.314 114.655 66.4139 113.905C65.5137 113.14 64.8208 112.276 64.3353 111.312C63.8499 110.333 63.4756 109.522 63.2127 108.88H62.9093V127.512H59.3288ZM62.8486 96.6727C62.8486 99.3344 63.1065 101.683 63.6223 103.717C64.1382 105.736 64.8916 107.319 65.8829 108.467C66.874 109.599 68.0878 110.165 69.524 110.165C71.0209 110.165 72.27 109.568 73.2713 108.375C74.2827 107.167 75.0413 105.545 75.547 103.511C76.0628 101.461 76.3208 99.1814 76.3208 96.6727C76.3208 94.1945 76.0679 91.9611 75.5622 89.9725C75.0666 87.9686 74.3131 86.3854 73.3016 85.2227C72.3003 84.0448 71.0411 83.4559 69.524 83.4559C68.0675 83.4559 66.8437 84.0143 65.8525 85.1309C64.8613 86.2323 64.1128 87.7774 63.6072 89.766C63.1014 91.7393 62.8486 94.0416 62.8486 96.6727ZM86.8345 127.512C86.2276 127.512 85.6865 127.435 85.2111 127.282C84.7358 127.145 84.4071 127.007 84.225 126.869L85.1353 122.097C86.0051 122.433 86.7738 122.555 87.4413 122.464C88.1089 122.372 88.7005 121.921 89.2164 121.11C89.7423 120.314 90.2228 119.022 90.6576 117.232L91.3252 114.479L82.7079 79.0504H86.5917L93.0244 107.136H93.2671L99.6999 79.0504H103.584L93.6919 119.435C93.2469 121.255 92.6957 122.762 92.0382 123.955C91.3808 125.164 90.6172 126.059 89.7474 126.64C88.8877 127.221 87.9167 127.512 86.8345 127.512ZM118.444 79.0504V83.6395H106.367V79.0504H118.444ZM109.887 70.6064H113.468V104.199C113.468 105.729 113.614 106.876 113.908 107.641C114.211 108.39 114.596 108.895 115.06 109.155C115.537 109.4 116.037 109.522 116.563 109.522C116.957 109.522 117.281 109.492 117.534 109.431C117.787 109.354 117.989 109.293 118.141 109.247L118.869 114.111C118.626 114.249 118.287 114.387 117.852 114.524C117.417 114.677 116.866 114.754 116.199 114.754C115.187 114.754 114.196 114.425 113.225 113.767C112.264 113.109 111.465 112.107 110.828 110.761C110.201 109.415 109.887 107.717 109.887 105.667V70.6064ZM133.35 115.029C131.104 115.029 129.168 114.28 127.539 112.781C125.921 111.266 124.672 109.155 123.792 106.448C122.922 103.725 122.487 100.558 122.487 96.9481C122.487 93.3378 122.922 90.1561 123.792 87.4025C124.672 84.6338 125.896 82.477 127.463 80.9319C129.041 79.3715 130.882 78.5915 132.986 78.5915C134.199 78.5915 135.398 78.8974 136.581 79.5093C137.765 80.1212 138.842 81.1155 139.813 82.4922C140.784 83.8537 141.557 85.6587 142.134 87.9074C142.711 90.1561 142.999 92.9248 142.999 96.2138V98.5083H125.036V93.8274H139.358C139.358 91.8388 139.094 90.0643 138.568 88.504C138.053 86.9436 137.314 85.7123 136.354 84.8097C135.403 83.9073 134.28 83.4559 132.986 83.4559C131.559 83.4559 130.326 83.9914 129.284 85.0621C128.252 86.1176 127.458 87.4943 126.902 89.1924C126.345 90.8904 126.068 92.7107 126.068 94.6534V97.7741C126.068 100.436 126.371 102.692 126.978 104.543C127.595 106.379 128.449 107.778 129.542 108.742C130.635 109.691 131.904 110.165 133.35 110.165C134.291 110.165 135.14 109.966 135.898 109.568C136.667 109.155 137.329 108.543 137.886 107.732C138.442 106.906 138.872 105.882 139.175 104.658L142.635 106.126C142.27 107.901 141.659 109.461 140.799 110.807C139.939 112.138 138.877 113.178 137.613 113.928C136.349 114.662 134.927 115.029 133.35 115.029ZM148.445 114.295V79.0504H151.904V84.3737H152.147C152.572 82.6299 153.341 81.215 154.453 80.1288C155.566 79.0427 156.82 78.4996 158.215 78.4996C158.479 78.4996 158.807 78.5073 159.202 78.5227C159.596 78.5379 159.895 78.5609 160.097 78.5915V84.0984C159.975 84.0525 159.697 83.9837 159.262 83.8919C158.838 83.7848 158.387 83.7313 157.912 83.7313C156.78 83.7313 155.768 84.0907 154.878 84.8097C153.998 85.5134 153.3 86.4924 152.784 87.7468C152.279 88.9859 152.026 90.4008 152.026 91.9917V114.295H148.445Z" fill="white" stroke="white" stroke-width="248" mask="url(#path-3-inside-1_24_66)"/>
<path d="M18.7113 38.3211C21.6607 38.3211 24.0516 35.1757 24.0516 31.2956C24.0516 27.4155 21.6607 24.27 18.7113 24.27C15.762 24.27 13.371 27.4155 13.371 31.2956C13.371 35.1757 15.762 38.3211 18.7113 38.3211Z" fill="#F37726"/>
<path d="M132.193 20.4379C136.371 20.4379 139.758 15.8627 139.758 10.2189C139.758 4.57518 136.371 0 132.193 0C128.015 0 124.628 4.57518 124.628 10.2189C124.628 15.8627 128.015 20.4379 132.193 20.4379Z" fill="#F37726"/>
<path d="M20.9365 175C26.5894 175 31.1721 168.423 31.1721 160.31C31.1721 152.197 26.5894 145.621 20.9365 145.621C15.2835 145.621 10.7009 152.197 10.7009 160.31C10.7009 168.423 15.2835 175 20.9365 175Z" fill="#F37726"/>
</svg>
