<svg width="15" height="25" viewBox="0 0 15 25" fill="none" xmlns="http://www.w3.org/2000/svg">
<path d="M14.1699 24.4873L7.05078 15.6396L13.877 9.0332C14.0039 8.90137 13.96 8.52051 13.6182 8.52051H10.2393C10.0684 8.52051 9.89746 8.6084 9.72656 8.7793L3.2666 15.3076V0.366211C3.2666 0.12207 3.14453 0 2.90039 0H0.366211C0.12207 0 0 0.12207 0 0.366211V24.6338C0 24.8779 0.12207 25 0.366211 25H2.90039C3.14453 25 3.2666 24.8779 3.2666 24.6338V19.3115L4.77051 17.8809L10.166 24.7461C10.3125 24.917 10.4834 25.0049 10.6787 25.0049H13.9453C14.1162 25.0049 14.2139 24.9561 14.2383 24.8584L14.1699 24.4873Z" fill="white"/>
</svg>
