<svg width="22" height="22" viewBox="0 0 22 22" fill="none" xmlns="http://www.w3.org/2000/svg">
<path d="M0 7.22656V1.17188C0 0.522461 0.522461 0 1.17188 0H7.22656C7.54883 0 7.8125 0.263672 7.8125 0.585938V2.53906C7.8125 2.86133 7.54883 3.125 7.22656 3.125H3.125V7.22656C3.125 7.54883 2.86133 7.8125 2.53906 7.8125H0.585938C0.263672 7.8125 0 7.54883 0 7.22656ZM14.0625 0.585938V2.53906C14.0625 2.86133 14.3262 3.125 14.6484 3.125H18.75V7.22656C18.75 7.54883 19.0137 7.8125 19.3359 7.8125H21.2891C21.6113 7.8125 21.875 7.54883 21.875 7.22656V1.17188C21.875 0.522461 21.3525 0 20.7031 0H14.6484C14.3262 0 14.0625 0.263672 14.0625 0.585938ZM21.2891 14.0625H19.3359C19.0137 14.0625 18.75 14.3262 18.75 14.6484V18.75H14.6484C14.3262 18.75 14.0625 19.0137 14.0625 19.3359V21.2891C14.0625 21.6113 14.3262 21.875 14.6484 21.875H20.7031C21.3525 21.875 21.875 21.3525 21.875 20.7031V14.6484C21.875 14.3262 21.6113 14.0625 21.2891 14.0625ZM7.8125 21.2891V19.3359C7.8125 19.0137 7.54883 18.75 7.22656 18.75H3.125V14.6484C3.125 14.3262 2.86133 14.0625 2.53906 14.0625H0.585938C0.263672 14.0625 0 14.3262 0 14.6484V20.7031C0 21.3525 0.522461 21.875 1.17188 21.875H7.22656C7.54883 21.875 7.8125 21.6113 7.8125 21.2891Z" fill="white"/>
</svg>
