<svg width="25" height="19" viewBox="0 0 25 19" fill="none" xmlns="http://www.w3.org/2000/svg">
<path d="M10.4995 0.344036L6.15527 4.6873H1.17188C0.524414 4.6873 0 5.21171 0 5.85917V12.8904C0 13.5374 0.524414 14.0623 1.17188 14.0623H6.15527L10.4995 18.4056C11.2334 19.1394 12.5 18.6238 12.5 17.5769V1.17265C12.5 0.124797 11.2324 -0.388875 10.4995 0.344036ZM22.541 9.3748L24.7695 7.14628C25.0771 6.83866 25.0771 6.33964 24.7695 6.03202L23.6553 4.91777C23.3477 4.61015 22.8486 4.61015 22.541 4.91777L20.3125 7.14628L18.084 4.91777C17.7764 4.61015 17.2773 4.61015 16.9697 4.91777L15.8555 6.03202C15.5479 6.33964 15.5479 6.83866 15.8555 7.14628L18.084 9.3748L15.856 11.6028C15.5483 11.9104 15.5483 12.4095 15.856 12.7171L16.9702 13.8313C17.2778 14.139 17.7769 14.139 18.0845 13.8313L20.3125 11.6033L22.541 13.8318C22.8486 14.1394 23.3477 14.1394 23.6553 13.8318L24.7695 12.7176C25.0771 12.41 25.0771 11.9109 24.7695 11.6033L22.541 9.3748Z" fill="white"/>
</svg>
