<svg width="201" height="254" viewBox="0 0 201 254" fill="none" xmlns="http://www.w3.org/2000/svg">
<path fill-rule="evenodd" clip-rule="evenodd" d="M42.3824 6.5L6.61765 0L2.85294 52.5V87.5L5.20588 126V160L1.91176 194.5L2.85294 218V236.5L0.5 249.5L1.26426 249.515L0.970588 249.5L4.73529 247.5L8.97059 245L12.7353 241L16.0294 236.5L18.7832 228.558L16.7353 228.913L17.2059 220.913L16.7353 212.913L28.5 214.413L35.5588 212.913L35.0882 220.913L35.5588 228.913L27.7941 227L27.7341 227.01L26.6176 236.5L26.1471 243L24.5065 249.972L76.7353 251L161.441 254L200.5 251L197.206 164.5V67L200.5 1L164.265 4L123.794 6.5H76.7353H42.3824ZM22.6176 22L16.0294 20.5L16.5 28.5L16.0294 32.5V36.5L21.6765 36L30.6176 36.5H34.8529L34.3824 28.5L34.8529 20.5L28.7353 22H22.6176ZM29.9118 151.617L18.1471 150.117L18.6176 158.117L18.1471 166.117L27.5588 165.617L36.9706 166.117L36.5 158.117L36.9706 150.117L29.9118 151.617ZM14.6176 84L21.2059 85.5H27.3235L33.4412 84L32.9706 92L33.4412 100H29.2059L20.2647 99.5L14.6176 100V96L15.0882 92L14.6176 84ZM23.6471 118.5L17.0588 117L17.5294 125L17.0588 129V133L22.7059 132.5L31.6471 133H35.8824L35.4118 125L35.8824 117L29.7647 118.5H23.6471ZM16.0294 181L22.6176 182.5H28.7353L34.8529 181L34.3824 189L34.8529 197H30.6176L21.6765 196.5L16.0294 197V193L16.5 189L16.0294 181ZM27.5588 54.5L15.7941 53L16.2647 61L15.7941 69L25.2059 68.5L34.6176 69L34.1471 61L34.6176 53L27.5588 54.5Z" fill="white"/>
<path d="M45.1624 37.5002L93.8313 37.5104L122.75 37.5165L150.292 36.0221L194.806 33.5316" stroke="#3E3E3E" stroke-width="7" stroke-linecap="round"/>
<path d="M45.1816 59.3377L93.3344 59.1497L121.947 59.0379L149.201 57.6757L193.252 55.4109" stroke="#3E3E3E" stroke-width="7" stroke-linecap="round"/>
<path d="M43.3223 79.9509L91.7764 79.9977L120.568 80.0254L147.987 78.5162L192.303 76" stroke="#3E3E3E" stroke-width="7" stroke-linecap="round"/>
<path d="M43.3235 101L91.7249 101.017L120.485 101.028L147.875 99.5373L192.144 97.0533" stroke="#3E3E3E" stroke-width="7" stroke-linecap="round"/>
<path d="M43.3232 122L78.1288 124.009L120.73 122.021L156.439 119.531L192.618 118.041" stroke="#3E3E3E" stroke-width="7" stroke-linecap="round"/>
<path d="M43.3235 143L91.8789 143.013L120.73 143.021L148.208 141.528L192.618 139.041" stroke="#3E3E3E" stroke-width="7" stroke-linecap="round"/>
<path d="M43.3235 185L81.2797 187.012L120.607 187.024L154.904 185.035L192.402 181.046" stroke="#3E3E3E" stroke-width="7" stroke-linecap="round"/>
<path d="M43.3235 206L82.0182 208.504L121.173 208.509L136.375 208.511L164.474 206.014L193.494 202.017" stroke="#3E3E3E" stroke-width="7" stroke-linecap="round"/>
<path d="M45.1741 226L81.0515 228.518L122.377 228.538L151.896 228.553L172.331 226.063L193.219 222.074" stroke="#3E3E3E" stroke-width="7" stroke-linecap="round"/>
<path d="M43.3235 164L91.9488 164.011L120.842 164.018L148.359 162.524L192.833 160.035" stroke="#3E3E3E" stroke-width="7" stroke-linecap="round"/>
</svg>
