<svg width="25" height="25" viewBox="0 0 25 25" fill="none" xmlns="http://www.w3.org/2000/svg">
<rect x="6.5" y="6.5" width="17" height="17" stroke="white" stroke-width="3"/>
<path fill-rule="evenodd" clip-rule="evenodd" d="M18 0H17H15V3H17V5H20V3V2H18V0ZM0 3V2H2V0H3H5V3H3V5H0V3ZM7 3H9V0H7V3ZM13 3H11V0H13V3ZM3 7H0V9H3V7ZM0 13V11H3V13H0ZM3 15H0V17V18H2V20H3H5V17H3V15ZM17 9V7H20V9H17ZM17 11V13H20V11H17ZM17 17V15H20V17V18H18V20H17H15V17H17ZM13 17V20H11V17H13ZM9 17H7V20H9V17Z" fill="white"/>
</svg>
