<svg width="100" height="150" viewBox="0 0 100 150" fill="none" xmlns="http://www.w3.org/2000/svg">
<path fill-rule="evenodd" clip-rule="evenodd" d="M1.22668 26.6678C12.7607 9.58096 27.4519 0 50.1338 0C74.2542 0 100 19.4109 100 45C100 66.1326 86.2312 74.3245 75.82 80.5187C69.4911 84.2842 64.403 87.3114 64.403 92.0587V93.75C64.403 97.6333 61.3496 100.781 57.583 100.781H36.9891C33.2225 100.781 30.1691 97.6333 30.1691 93.75V90.8824C30.1691 73.202 42.8598 65.8803 52.8277 60.1294C53.0721 59.9884 53.3149 59.8483 53.5558 59.7091C62.1876 54.7198 67.4779 51.3267 67.4779 44.7196C67.4779 35.9798 56.6648 30.1793 47.9227 30.1793C36.8041 30.1793 31.524 35.4727 24.4059 44.6663C22.0982 47.647 17.9042 48.1857 14.9565 45.8815L2.6981 36.2988C-0.220578 34.0172 -0.865637 29.7674 1.22668 26.6678ZM27.6016 129.706C27.6016 118.516 36.4321 109.412 47.2862 109.412C58.1402 109.412 66.9707 118.516 66.9707 129.706C66.9707 140.896 58.1402 150 47.2862 150C36.4321 150 27.6016 140.896 27.6016 129.706Z" fill="black"/>
</svg>
