<svg width="208" height="208" viewBox="0 0 208 208" fill="none" xmlns="http://www.w3.org/2000/svg">
<g filter="url(#filter0_d_15_38)">
<path d="M104 17V81.5833" stroke="white" stroke-width="34" stroke-linecap="round"/>
<path d="M25.2685 66.6719C23.4305 68.7328 23.6111 71.8934 25.6719 73.7315C27.7328 75.5695 30.8934 75.3889 32.7315 73.3281L25.2685 66.6719ZM62 33L7.17557 51.1001L50.263 89.5294L62 33ZM32.7315 73.3281L35.7788 69.9114L28.3159 63.2552L25.2685 66.6719L32.7315 73.3281Z" fill="white"/>
<path d="M161.541 42.4585C168.815 35.1854 180.781 35.1114 186.581 43.6056C193.689 54.014 198.797 65.7199 201.579 78.1276C205.725 96.6245 204.528 115.919 198.128 133.762C191.728 151.605 180.389 167.261 165.432 178.906C150.474 190.551 132.515 197.705 113.648 199.534C94.7803 201.362 75.7816 197.791 58.8663 189.235C41.9509 180.68 27.8156 167.493 18.1081 151.211C8.40057 134.93 3.52064 116.224 4.03714 97.2753C4.3836 84.5645 7.1487 72.0953 12.1251 60.5156C16.1864 51.0655 27.944 48.84 36.4786 54.5809C45.0132 60.3218 46.9592 71.8942 43.9653 81.7346C42.3386 87.0813 41.4253 92.6478 41.2715 98.2902C40.9474 110.181 44.0096 121.919 50.1013 132.136C56.1929 142.353 65.0631 150.628 75.6778 155.997C86.2925 161.366 98.2145 163.607 110.054 162.459C121.894 161.311 133.163 156.822 142.549 149.515C151.935 142.208 159.051 132.383 163.067 121.186C167.083 109.989 167.834 97.8818 165.232 86.2747C163.998 80.7669 162.032 75.4794 159.409 70.5446C154.581 61.4624 154.268 49.7317 161.541 42.4585Z" fill="white"/>
<path d="M61.4264 172.618C48.1229 159.771 79.1113 138.144 118.259 139.707C190.194 137.44 163.551 87.9424 162 62C159.682 42.6637 186.681 80.3557 186.284 109.157C185.801 144.13 74.7298 185.465 61.4264 172.618Z" fill="white"/>
</g>
<defs>
<filter id="filter0_d_15_38" x="0" y="0" width="208" height="208" filterUnits="userSpaceOnUse" color-interpolation-filters="sRGB">
<feFlood flood-opacity="0" result="BackgroundImageFix"/>
<feColorMatrix in="SourceAlpha" type="matrix" values="0 0 0 0 0 0 0 0 0 0 0 0 0 0 0 0 0 0 127 0" result="hardAlpha"/>
<feOffset dy="4"/>
<feGaussianBlur stdDeviation="2"/>
<feComposite in2="hardAlpha" operator="out"/>
<feColorMatrix type="matrix" values="0 0 0 0 0 0 0 0 0 0 0 0 0 0 0 0 0 0 0.25 0"/>
<feBlend mode="normal" in2="BackgroundImageFix" result="effect1_dropShadow_15_38"/>
<feBlend mode="normal" in="SourceGraphic" in2="effect1_dropShadow_15_38" result="shape"/>
</filter>
</defs>
</svg>
