<svg width="152" height="150" viewBox="0 0 152 150" fill="none" xmlns="http://www.w3.org/2000/svg">
<path d="M9.30345 57.1905C6.6329 56.488 5.02142 53.7465 5.9003 51.1287C10.6253 37.0547 19.4368 24.66 31.262 15.5607C44.4115 5.44221 60.5452 -0.030221 77.1372 0.000125444C93.7291 0.0304719 109.843 5.56189 122.955 15.7284C136.068 25.8949 145.439 40.1225 149.601 56.1839C153.764 72.2452 152.483 89.2335 145.959 104.489C139.436 119.745 128.037 132.407 113.549 140.492C99.06 148.578 82.2992 151.63 65.8902 149.173C51.134 146.962 37.4114 140.408 26.4453 130.401C24.4055 128.539 24.4825 125.36 26.4757 123.449L39.7118 110.756C41.705 108.845 44.8545 108.935 46.968 110.713C53.5384 116.238 61.534 119.866 70.088 121.147C80.2969 122.676 90.7247 120.777 99.7389 115.746C108.753 110.716 115.845 102.838 119.903 93.3469C123.962 83.8555 124.759 73.2861 122.169 63.2934C119.58 53.3008 113.749 44.449 105.591 38.1238C97.4333 31.7987 87.4081 28.3573 77.0853 28.3384C66.7626 28.3195 56.7249 31.7242 48.5438 38.0195C41.689 43.2942 36.4618 50.3488 33.4023 58.37C32.4181 60.9501 29.7089 62.5587 27.0383 61.8562L9.30345 57.1905Z" fill="white"/>
<path d="M9 92.963L43.8953 62.7033L0.24201 47.6129L9 92.963ZM24.5423 60.2454L31.7805 39.3069L24.2195 36.6931L16.9813 57.6317L24.5423 60.2454Z" fill="white"/>
<circle cx="77" cy="75" r="30" fill="white"/>
</svg>
