<svg width="25" height="25" viewBox="0 0 25 25" fill="none" xmlns="http://www.w3.org/2000/svg">
<path d="M9.76318 14.0601H4.29443C3.24951 14.0601 2.72705 15.3198 3.46436 16.062L5.0708 17.5757L0.227051 22.4243C-0.0756836 22.7271 -0.0756836 23.2251 0.227051 23.5278L1.46729 24.7681C1.77002 25.0708 2.26807 25.0708 2.5708 24.7681L7.41943 19.9194L8.93799 21.5308C9.67529 22.2681 10.9351 21.7456 10.9351 20.7007V15.2319C10.9351 14.5825 10.4126 14.0601 9.76318 14.0601ZM15.2319 10.9351H20.7007C21.7456 10.9351 22.2681 9.67041 21.5308 8.93311L19.9194 7.41943L24.7681 2.5708C25.0708 2.26807 25.0708 1.77002 24.7681 1.46729L23.5278 0.227051C23.2251 -0.0756836 22.7271 -0.0756836 22.4243 0.227051L17.5757 5.07568L16.0571 3.46436C15.3198 2.72705 14.0601 3.24951 14.0601 4.29443V9.76318C14.0601 10.4126 14.5825 10.9351 15.2319 10.9351ZM19.9194 17.5757L21.5308 16.0571C22.2681 15.3198 21.7456 14.0601 20.7007 14.0601H15.2319C14.5825 14.0601 14.0601 14.5825 14.0601 15.2319V20.7007C14.0601 21.7456 15.3247 22.2681 16.062 21.5308L17.5757 19.9243L22.4243 24.7729C22.7271 25.0757 23.2251 25.0757 23.5278 24.7729L24.7681 23.5327C25.0708 23.23 25.0708 22.7319 24.7681 22.4292L19.9194 17.5757ZM8.93311 3.46924L7.41943 5.07568L2.5708 0.227051C2.26807 -0.0756836 1.77002 -0.0756836 1.46729 0.227051L0.227051 1.46729C-0.0756836 1.77002 -0.0756836 2.26807 0.227051 2.5708L5.07568 7.41943L3.46436 8.93799C2.72705 9.67529 3.24951 10.9351 4.29443 10.9351H9.76318C10.4126 10.9351 10.9351 10.4126 10.9351 9.76318V4.29443C10.9351 3.25439 9.67041 2.73193 8.93311 3.46924Z" fill="white"/>
</svg>
