<svg width="25" height="21" viewBox="0 0 25 21" fill="none" xmlns="http://www.w3.org/2000/svg">
<path d="M9.3329 2.38952L5.47135 6.2502H1.04167C0.466146 6.2502 0 6.71635 0 7.29187V13.5419C0 14.117 0.466146 14.5835 1.04167 14.5835H5.47135L9.3329 18.4442C9.98524 19.0966 11.1111 18.6382 11.1111 17.7077V3.12607C11.1111 2.19465 9.98437 1.73805 9.3329 2.38952ZM19.4596 0.17251C18.9748 -0.145632 18.3233 -0.0115176 18.0052 0.474159C17.6866 0.958968 17.822 1.61044 18.3069 1.92859C21.1832 3.81617 22.8997 6.98935 22.8997 10.4173C22.8997 13.8453 21.1832 17.0184 18.3069 18.906C17.822 19.2237 17.6866 19.8756 18.0052 20.36C18.3108 20.8249 18.957 20.992 19.4596 20.6617C22.9284 18.3847 25 14.5545 25 10.4169C25 6.27928 22.9284 2.44942 19.4596 0.17251ZM20.8333 10.4169C20.8333 7.65949 19.4418 5.12433 17.1107 3.63562C16.625 3.32572 15.9809 3.46982 15.6732 3.9594C15.3655 4.44899 15.5091 5.09699 15.9948 5.40732C17.7201 6.50932 18.75 8.38171 18.75 10.4169C18.75 12.452 17.7201 14.3244 15.9948 15.4264C15.5091 15.7363 15.3655 16.3843 15.6732 16.8743C15.9557 17.324 16.5898 17.5315 17.1107 17.1981C19.4418 15.7094 20.8333 13.1747 20.8333 10.4169ZM14.6801 7.0805C14.1775 6.80576 13.5434 6.98675 13.2648 7.49065C12.9874 7.99456 13.171 8.62781 13.6749 8.90602C14.2352 9.21374 14.5833 9.79317 14.5833 10.4169C14.5833 11.041 14.2352 11.62 13.6753 11.9277C13.1714 12.2059 12.9878 12.8392 13.2652 13.3431C13.5443 13.8492 14.1788 14.0288 14.6806 13.7532C15.9058 13.0783 16.6671 11.8001 16.6671 10.4164C16.6671 9.03275 15.9058 7.75498 14.6801 7.0805Z" fill="white"/>
</svg>
